<?xml version="1.0" encoding="utf-8"?>
<!-- Generator: Adobe Illustrator 22.0.1, SVG Export Plug-In . SVG Version: 6.00 Build 0)  -->
<svg version="1.1" id="Layer_1" xmlns="http://www.w3.org/2000/svg" xmlns:xlink="http://www.w3.org/1999/xlink" x="0px" y="0px"
	 viewBox="0 0 467.7 198.4" style="enable-background:new 0 0 467.7 198.4;" xml:space="preserve">
<style type="text/css">
	.Arched_x0020_Green{fill:url(#SVGID_1_);stroke:#FFFFFF;stroke-width:0.25;stroke-miterlimit:1;}
	.st0{fill:#FFFFFF;stroke:#FFFFFF;stroke-width:2.024;}
	.st1{fill:#FFFFFF;}
</style>
<linearGradient id="SVGID_1_" gradientUnits="userSpaceOnUse" x1="0" y1="198.4297" x2="0.7071" y2="197.7226">
	<stop  offset="0" style="stop-color:#259E2E"/>
	<stop  offset="0.9831" style="stop-color:#1C381D"/>
</linearGradient>
<path class="st0" d="M140.8,24.3c-1.7,0.5-3.3,1.5-4.8,3.4c-1.5,1.9-5.6,8.8-9.9,17.5c-4.9,9.7-24.4,48.9-33.5,68.2
	c-0.7,1.8-1.9,3.5-3.2,5.7c-1.3,2.3-2.8,5.3-4.4,8c-0.4,0.5-0.7,1-2.7,1c-2.9,0-4-0.5-4.6-1.3c-0.5-0.8-2.4-4.1-6.9-14.4
	C54.7,76.1,42.6,50.9,37.1,40.2c-6.8-13.6-9.2-15.7-16.3-17.4l0.6-1.3c0.4-1,27-12.6,34.9,9.9c1.9,5.3,3.8,9.8,12,27.3
	c7.8,16.5,14,29.3,20.9,43.3c0.4,0.7,1.5,0.9,2-0.1c3.7-6.2,12.4-24.9,21.7-45.6c3.4-7.8,6.8-15.6,9.9-25.5c1.7-5.1-0.4-6.2-6.1-7
	l-16.2-0.5c-0.9-0.2-1.1-0.5-0.9-1.1c0.4-0.9,1.1-2,2.2-2c4.1,0,24.2,0.5,29.1,0.5c3.8,0,10,0,14.5,0c1.7,0,4.3,0.9,4.4,1.7
	c0,0.5,5.1,0.9-3.9,1.4L140.8,24.3z"/>
<path class="st0" d="M173.9,126.8c-10.7-0.5-21.7-0.8-33-0.7c-1.1,0-1.5-0.2-1.9-1c-0.2-0.7-0.6-1.7-0.4-2.5
	c8-0.9,10.4-2.1,11.7-10.5c1.1-8.3,2.1-22.5,3.6-41.7l2.6-35.8c0.6-8.4-1.9-10-13.4-10.5c1,0,0.8-2.4,1.3-3.2
	c0.2-0.2-0.3-0.3,0.4-0.3c0.7,0,11.9,0.4,18.2,0.4c4.2,0,9-0.2,13.2-0.2c0.2,3,1.1,6.2,2.2,8.5c8.9,19.2,25.1,48.2,36.5,67.5
	c0.4,0.7,1.2,0.2,1.3-0.1c11.5-19.6,26-48.7,35.5-67.5c1-1.7,1.3-3.4,1.9-8.4c9.4,0.2,19.5,0.1,32-0.3c0.4,0.7,0.4,1.8,0,2.7
	c-10.7,1.8-11.6,3.3-12,8.5c-0.4,5.8-0.4,15.5,0.2,38.1c0.4,15.4,1.1,34.4,1.5,41.5c0.4,7.2,5.7,8.7,13,10.5
	c1.9,0.5,2.2,1.3,2.2,2.6c0,0.5-0.7,0.8-1.5,0.8c0,0-32.8,9.6-35.7-11.9c-0.6-4.3,0.7-12.6,0.3-72.6c0-1-0.7-1.3-1.1-0.8
	c-3,4.1-19.7,38.6-27.6,54.9c-8.2,16.9-11.2,23.8-12.1,25.4c-2.2,4-2.8,5.3-4.8,5.3c-0.7,0-1.7-0.5-2.6-1.8c-0.8-1.2-5.2-9.2-9.7-18
	c-16.1-31.6-27.4-53.3-33.5-65.4c-1.3,15.3-2.4,37.3-2.6,51c-0.4,16.9,0.2,23.3,0.7,26.1c0.8,3.3,4.2,4.3,11.1,5.7
	c1.9,0.2,2,0.5,2.2,1L173.9,126.8z"/>
<path class="st0" d="M287.1,73.9c0-11.3,3-25.5,14.5-37.1c9.6-9.3,23-13.8,34.2-16.3c8.7-2,20.7-2.5,24.4-2.5
	c10,0,18.9,1.4,25.2,3.3c1.9,0.7,3.3,0.1,6.5-2.3c0.6-0.3,1.5-0.2,2.4,0.5c0.6,0.6,0.6,1.1,0.4,1.6c-3.9,8.6-3.7,17.2-3,26
	c0,0.3-0.8,0.7-2,0.8c-0.9,0-1.3-0.5-1.5-1.3c-0.9-4-2.1-8.1-3.7-10.9c-1.7-2.7-4-5.1-7.2-7.6c-5.4-3.8-12.6-5.6-23.1-5.6
	c-10.6,0-22.2,5-30.4,14.2c-9,10.2-12.1,24.5-12.1,37.8c0,18.2,11.5,48.4,44.8,48.4c12.4,0,21.3-5.5,26.5-9.1
	c5.5-4.2,8.9-10.2,9.8-12.7c0.2-0.7,0.6-0.8,1.1-0.5c1.1,1.1,1.5,1.8,1.5,2.5c-1.9,9.1-5.7,17.2-8.4,20.9c-1.3,1.8-1.9,1.8-3,1.7
	c-6.1-0.5-14.2,2.3-28.8,2.3c-49.1,0-68.3-28.7-68.3-53.9V73.9z"/>
<g>
	<path class="st1" d="M74.2,153l-10.7,24.5H59l-9.8-24.2l5.6-0.7l7.1,19.1l7.6-19.1L74.2,153z"/>
	<path class="st1" d="M83.1,154.4c0,0.7-0.3,1.4-0.9,1.9c-0.6,0.5-1.3,0.8-2.1,0.8c-0.8,0-1.5-0.3-2.1-0.8c-0.6-0.5-0.9-1.1-0.9-1.8
		c0-0.8,0.3-1.5,0.8-2c0.5-0.5,1.3-0.8,2.2-0.8c0.8,0,1.5,0.3,2.1,0.8C82.8,153,83.1,153.6,83.1,154.4z M82.7,177.4h-5.1v-17.6h5.1
		V177.4z"/>
	<path class="st1" d="M101,172.6c0,1.5-0.7,2.8-2.1,3.8c-1.4,1-3.1,1.5-5.2,1.5c-2.4,0-4.5-0.7-6.4-2l1.7-2.5
		c1.5,1.2,2.9,1.8,4.1,1.8c0.8,0,1.5-0.2,2-0.6c0.5-0.4,0.8-0.9,0.8-1.6c0-0.6-0.2-1.1-0.6-1.5c-0.4-0.4-1.3-1.1-2.7-2
		s-2.3-1.6-2.8-2.1c-0.9-0.9-1.3-1.9-1.3-3c0-1.4,0.6-2.6,1.9-3.5c1.2-0.9,2.8-1.4,4.8-1.4c2,0,3.9,0.5,5.5,1.4l-1.5,2.2
		c-1-0.7-2.1-1-3.2-1c-0.7,0-1.3,0.2-1.7,0.5c-0.4,0.3-0.7,0.7-0.7,1.2c0,0.7,0.9,1.7,2.7,2.9c2,1.3,3.3,2.4,4,3.2
		C100.6,170.6,101,171.5,101,172.6z"/>
	<path class="st1" d="M125.8,168.2c0,2.7-0.9,5-2.6,6.9c-1.8,1.8-4,2.7-6.6,2.7c-1.2,0-2.3-0.2-3.1-0.6c-0.9-0.4-1.8-1.1-2.8-2.2
		v2.4h-5v-25.9h5v10.8c1.7-2,3.9-3,6.6-3c2.6,0,4.6,0.8,6.2,2.4C125,163.5,125.8,165.6,125.8,168.2z M120.3,168.4
		c0-1.9-0.4-3.4-1.3-4.6c-0.8-1.1-2-1.7-3.4-1.7c-1.5,0-2.7,0.6-3.6,1.8c-0.9,1.2-1.4,2.8-1.4,4.8c0,2,0.4,3.5,1.3,4.6
		c0.9,1.1,2.1,1.7,3.6,1.7c1.3,0,2.3-0.4,3.1-1.3C119.8,172.5,120.3,170.7,120.3,168.4z"/>
	<path class="st1" d="M147.4,160.2l-9.4,19.4c-1.2,2.5-2.4,4.2-3.4,5c-1.4,1.1-3.4,1.6-6,1.6h-1.2v-3.1h1c1.2,0,2.1-0.1,2.8-0.4
		c0.7-0.3,1.3-0.8,1.9-1.7c0.6-0.8,1.4-2.4,2.5-4.7l-7.5-15.9l5-0.9l5,12.4l5.5-12.4L147.4,160.2z"/>
	<path class="st1" d="M190.6,177.4h-5.3v-13.6c0-1.1,0.1-3,0.2-5.7c-0.7,1.9-1.4,3.6-2.2,5.3l-6.8,14.1h-2.4l-6.6-14.1
		c-0.4-0.9-1.1-2.7-2.1-5.3c0.1,2.1,0.2,4,0.2,5.7v13.6h-4.3v-24.7h6.2l8.5,18.2l8.8-18.2h5.9V177.4z"/>
	<path class="st1" d="M215.7,168.5c0,2.7-0.9,5-2.8,6.7c-1.9,1.8-4.3,2.6-7.2,2.6c-3,0-5.4-0.9-7.3-2.6c-1.9-1.7-2.8-4-2.8-6.7
		c0-2.7,1-4.9,2.9-6.6c1.9-1.7,4.4-2.6,7.4-2.6c2.9,0,5.3,0.9,7.2,2.6C214.7,163.7,215.7,165.9,215.7,168.5z M210.4,168.5
		c0-2.1-0.4-3.7-1.3-4.8c-0.9-1.2-2-1.7-3.6-1.7c-1.4,0-2.6,0.6-3.5,1.8c-0.9,1.2-1.3,2.8-1.3,4.8c0,2.1,0.4,3.8,1.3,5
		c0.9,1.2,2,1.8,3.6,1.8c1.5,0,2.7-0.6,3.5-1.8C209.9,172.3,210.4,170.6,210.4,168.5z"/>
	<path class="st1" d="M232,176.7c-1.8,0.8-3.5,1.1-5.2,1.1c-2.3,0-3.9-0.7-5-2c-0.6-0.8-1-2.4-1-4.5v-9.1h-2.7v-2.4h2.7v-4.3l5.1-1
		v5.3h5.1v2.4H226v8.1c0,1.8,0.2,3,0.6,3.7c0.4,0.7,1.1,1,2.1,1c0.8,0,1.6-0.2,2.4-0.6L232,176.7z"/>
	<path class="st1" d="M254,168.5c0,2.7-0.9,5-2.8,6.7c-1.9,1.8-4.3,2.6-7.2,2.6c-3,0-5.4-0.9-7.3-2.6c-1.9-1.7-2.8-4-2.8-6.7
		c0-2.7,1-4.9,2.9-6.6c1.9-1.7,4.4-2.6,7.4-2.6c2.9,0,5.3,0.9,7.2,2.6C253.1,163.7,254,165.9,254,168.5z M248.7,168.5
		c0-2.1-0.4-3.7-1.3-4.8c-0.9-1.2-2-1.7-3.6-1.7c-1.4,0-2.6,0.6-3.5,1.8c-0.9,1.2-1.3,2.8-1.3,4.8c0,2.1,0.4,3.8,1.3,5
		c0.9,1.2,2,1.8,3.6,1.8c1.5,0,2.7-0.6,3.5-1.8C248.3,172.3,248.7,170.6,248.7,168.5z"/>
	<path class="st1" d="M271.6,161l-1.9,3.3c-1.1-0.5-2-0.7-2.4-0.7c-1.4,0-2.5,0.7-3,2.1c-0.3,0.8-0.5,2.2-0.5,4.2v7.5h-5.1v-17.6
		h5.1v3.1l0.7-1.1c1-1.6,2.2-2.4,3.5-2.4C269.1,159.4,270.3,159.9,271.6,161z"/>
	<path class="st1" d="M289.7,176.2c-2,1.1-4.3,1.7-6.7,1.7c-2.9,0-5.4-0.9-7.3-2.6c-1.9-1.7-2.9-3.9-2.9-6.6c0-2.7,1-4.9,3-6.7
		c2-1.8,4.6-2.6,7.7-2.6c2.2,0,4.2,0.5,5.9,1.4l-1.5,2.5c-1.3-0.5-2.5-0.8-3.7-0.8c-1.8,0-3.3,0.5-4.3,1.6c-1.1,1.1-1.6,2.5-1.6,4.4
		c0,1.9,0.6,3.4,1.7,4.5c1.1,1.2,2.6,1.7,4.4,1.7c1.2,0,2.6-0.4,4.1-1.1L289.7,176.2z"/>
	<path class="st1" d="M310.1,168.5c0,0-0.2,0.1-0.5,0.3c-0.3,0.1-0.5,0.2-0.5,0.3h-11.7c0,1.8,0.6,3.2,1.7,4.2
		c1.1,1,2.5,1.5,4.3,1.5c1.7,0,3.3-0.5,5-1.4l1.4,2.4c-2.6,1.3-5.1,2-7.6,2c-2.8,0-5.2-0.8-7.1-2.4c-2.1-1.8-3.2-4.2-3.2-7.1
		c0-2.7,1-4.9,2.9-6.6c1.8-1.6,4.1-2.4,6.9-2.4c3.5,0,5.9,1.3,7.2,3.9C309.7,164.7,310.1,166.4,310.1,168.5z M305.6,166.7
		c0-0.2,0-0.5,0-0.8c-0.2-2.7-1.5-4-3.8-4c-2.7,0-4.1,1.6-4.3,4.8H305.6z"/>
	<path class="st1" d="M333.2,177.4h-5.1v-10.1c0-1.5-0.2-2.6-0.6-3.3c-0.6-1-1.7-1.5-3.1-1.5c-2.1,0-3.5,0.8-4.1,2.4
		c-0.2,0.6-0.3,1.6-0.3,2.9v9.5h-5.2v-17.6h5.2v2.4c1.9-1.9,4.1-2.8,6.6-2.8c3.1,0,5.1,1.1,6.1,3.3c0.4,0.9,0.6,2.5,0.6,4.7V177.4z"
		/>
	<path class="st1" d="M350.9,176.7c-1.8,0.8-3.5,1.1-5.2,1.1c-2.3,0-3.9-0.7-5-2c-0.6-0.8-1-2.4-1-4.5v-9.1H337v-2.4h2.7v-4.3l5.1-1
		v5.3h5.1v2.4h-5.1v8.1c0,1.8,0.2,3,0.6,3.7c0.4,0.7,1.1,1,2.1,1c0.8,0,1.6-0.2,2.4-0.6L350.9,176.7z"/>
	<path class="st1" d="M366.9,161l-1.9,3.3c-1.1-0.5-2-0.7-2.4-0.7c-1.4,0-2.5,0.7-3,2.1c-0.3,0.8-0.5,2.2-0.5,4.2v7.5h-5.1v-17.6
		h5.1v3.1l0.7-1.1c1-1.6,2.2-2.4,3.5-2.4C364.4,159.4,365.6,159.9,366.9,161z"/>
	<path class="st1" d="M385.6,177.4h-5.4c-0.3-0.7-0.4-1.5-0.5-2.4c-1.7,1.9-3.8,2.8-6.2,2.8c-1.6,0-2.9-0.5-4-1.5
		c-1.1-1-1.6-2.2-1.6-3.6c0-2.1,1.2-3.8,3.5-5.1c1.3-0.7,3.1-1.3,5.2-1.8c0.9-0.2,1.9-0.4,3.2-0.7c-0.5-2.1-1.8-3.2-3.9-3.2
		c-1.6,0-3.2,0.6-4.9,1.9l-1.7-2.2c2.2-1.6,4.8-2.4,7.7-2.4c3,0,5.2,0.8,6.5,2.4c0.5,0.6,0.8,1.2,1,1.9c0.2,0.8,0.3,1.9,0.3,3.4v4.7
		C384.8,174.3,385.1,176.2,385.6,177.4z M379.9,169.6v-1.7c-0.4,0.1-1.1,0.2-2.1,0.5c-3.3,0.7-5,2-5,3.8c0,0.8,0.3,1.4,0.8,1.9
		c0.5,0.5,1.1,0.7,1.9,0.7c0.9,0,1.8-0.3,2.6-0.8c0.7-0.5,1.1-1.1,1.4-1.8C379.7,171.2,379.9,170.4,379.9,169.6z"/>
	<path class="st1" d="M395.7,177.4h-5.1v-25.9h5.1V177.4z"/>
</g>
<g>
	<path class="st1" d="M370.7,74.8c0,9.9-8,17.9-17.9,17.9c-9.9,0-17.9-8-17.9-17.9c0-9.9,8-17.9,17.9-17.9
		C362.7,56.8,370.7,64.9,370.7,74.8z"/>
	<path class="st1" d="M408.9,74.7c0,9.9-8,17.9-17.9,17.9c-9.9,0-17.9-8-17.9-17.9c0-9.9,8-17.9,17.9-17.9
		C400.8,56.8,408.9,64.9,408.9,74.7z"/>
	<path class="st1" d="M447,74.9c0,9.9-8,17.9-17.9,17.9c-9.9,0-17.9-8-17.9-17.9c0-9.9,8-17.9,17.9-17.9C438.9,57,447,65,447,74.9z"
		/>
</g>
</svg>
